<?xml version="1.0" encoding="UTF-8" standalone="no"?>
<!-- Created with Inkscape (http://www.inkscape.org/) -->

<svg
   xmlns:dc="http://purl.org/dc/elements/1.1/"
   xmlns:cc="http://creativecommons.org/ns#"
   xmlns:rdf="http://www.w3.org/1999/02/22-rdf-syntax-ns#"
   xmlns:svg="http://www.w3.org/2000/svg"
   xmlns="http://www.w3.org/2000/svg"
   xmlns:sodipodi="http://sodipodi.sourceforge.net/DTD/sodipodi-0.dtd"
   xmlns:inkscape="http://www.inkscape.org/namespaces/inkscape"
   version="1.1"
   id="svg2033"
   xml:space="preserve"
   width="800"
   height="800"
   viewBox="0 0 800 800"
   sodipodi:docname="waving-stripes-abstract-art.svg"
   inkscape:version="0.92.4 (5da689c313, 2019-01-14)"><metadata
     id="metadata2039"><rdf:RDF><cc:Work
         rdf:about=""><dc:format>image/svg+xml</dc:format><dc:type
           rdf:resource="http://purl.org/dc/dcmitype/StillImage" /><dc:title></dc:title></cc:Work></rdf:RDF></metadata><defs
     id="defs2037"><clipPath
       clipPathUnits="userSpaceOnUse"
       id="clipPath2049"><path
         d="M 0,600 H 600 V 0 H 0 Z"
         id="path2047"
         inkscape:connector-curvature="0" /></clipPath></defs><sodipodi:namedview
     pagecolor="#ffffff"
     bordercolor="#666666"
     borderopacity="1"
     objecttolerance="10"
     gridtolerance="10"
     guidetolerance="10"
     inkscape:pageopacity="0"
     inkscape:pageshadow="2"
     inkscape:window-width="1920"
     inkscape:window-height="1018"
     id="namedview2035"
     showgrid="false"
     inkscape:zoom="0.85479522"
     inkscape:cx="469.49153"
     inkscape:cy="415.25424"
     inkscape:window-x="-8"
     inkscape:window-y="-8"
     inkscape:window-maximized="1"
     inkscape:current-layer="g2041" /><g
     id="g2041"
     inkscape:groupmode="layer"
     inkscape:label="abstract-graphcs-1051--publicdomainvectors.org"
     transform="matrix(1.3333333,0,0,-1.3333333,0,800)"><g
       id="g2043"><g
         id="g2045"
         clip-path="url(#clipPath2049)"><path
           d="m 460.107,409.203 c 25.322,-4.908 49.868,-6.602 71.662,-4.546 18.685,1.768 34.214,6.247 43.429,14.087 13.38,11.419 2.866,35.79 -18.305,50.902 0.436,-2.006 0.874,-4.007 1.288,-6.007 21.076,-15.727 31.182,-40.985 17.207,-53.118 -9.492,-8.213 -25.388,-13.04 -44.475,-15.009 -22.179,-2.281 -47.149,-0.664 -72.834,4.322 0.683,3.118 1.36,6.24 2.028,9.369"
           style="fill:#c57aba;fill-opacity:1;fill-rule:nonzero;stroke:none"
           id="path2051"
           inkscape:connector-curvature="0" /><path
           d="m 325.808,427.26 c 47.522,4.928 92.776,-2.215 135.377,-10.531 20.292,-3.957 40.168,-5.879 58.645,-5.492 16.676,0.353 31.347,2.538 42.835,7.041 -0.008,-0.914 -0.023,-1.828 -0.042,-2.741 -11.573,-4.59 -26.346,-6.846 -43.126,-7.238 -18.579,-0.431 -38.558,1.476 -58.931,5.453 -42.544,8.318 -87.623,15.387 -134.92,10.235 0.053,1.092 0.108,2.182 0.162,3.273"
           style="fill:#df188d;fill-opacity:1;fill-rule:nonzero;stroke:none"
           id="path2053"
           inkscape:connector-curvature="0" /><path
           d="m 324.761,405.963 c 38.179,5.293 75.388,3.769 110.203,-3.581 -1.25,-5.558 -2.491,-11.123 -3.67,-16.702 -33.945,7.056 -70.313,7.987 -107.399,1.656 0.273,6.218 0.569,12.425 0.866,18.627"
           style="fill:#df188d;fill-opacity:1;fill-rule:nonzero;stroke:none"
           id="path2055"
           inkscape:connector-curvature="0" /><path
           d="m 323.654,381.843 c 30.662,5.531 60.78,5.937 89.291,1.922 28.362,-4.003 57.454,-12.382 86.326,-13.004 -0.264,-1.777 -0.531,-3.55 -0.795,-5.322 -29.081,0.555 -58.276,8.93 -86.529,12.843 -28.292,3.909 -58.179,3.317 -88.546,-2.489 0.081,2.019 0.171,4.034 0.253,6.05"
           style="fill:#376db7;fill-opacity:1;fill-rule:nonzero;stroke:none"
           id="path2057"
           inkscape:connector-curvature="0" /><path
           d="m 408.54,436.779 c 50.874,-6.256 96.825,-19.69 135.17,-14.008 14.999,2.23 27.181,6.63 33.565,13.626 5.149,5.661 5.403,14.315 1.485,21.34 0.194,-1.365 0.39,-2.729 0.586,-4.092 3.846,-7.249 3.456,-16.105 -1.843,-21.97 -6.525,-7.205 -18.897,-11.805 -34.109,-14.166 -38.745,-5.992 -85.058,7.699 -135.771,13.786 0.31,1.828 0.614,3.656 0.917,5.484"
           style="fill:#e347a2;fill-opacity:1;fill-rule:nonzero;stroke:none"
           id="path2059"
           inkscape:connector-curvature="0" /><path
           d="m 454.781,448.961 c 27.879,-5.748 54.22,-9.129 77.573,-8.107 19.445,0.857 35.281,4.371 43.217,11.946 5.878,5.623 4.727,15.607 -1.473,23.005 -7.851,9.362 -20.694,17.418 -36.004,25.001 0.719,-2.623 1.407,-5.242 2.095,-7.851 15.205,-7.993 27.939,-16.571 35.473,-26.48 6.06,-7.977 6.817,-18.553 0.511,-24.733 -8.333,-8.142 -24.734,-12.198 -44.781,-13.343 -23.928,-1.356 -50.837,1.881 -78.887,7.88 0.796,4.218 1.555,8.446 2.276,12.682"
           style="fill:#376db7;fill-opacity:1;fill-rule:nonzero;stroke:none"
           id="path2061"
           inkscape:connector-curvature="0" /><path
           d="m 561.11,371.191 c -12.878,-5.937 -29.191,-9.269 -47.507,-10.284 -20.035,-1.107 -41.461,0.649 -63.002,4.788 -41.113,7.915 -83.163,13.312 -126.356,4.803"
           style="fill:none;stroke:#e347a2;stroke-width:0.34400001;stroke-linecap:butt;stroke-linejoin:miter;stroke-miterlimit:4;stroke-dasharray:1.951, 0.976, 1.951, 0.976, 1.951, 0.976;stroke-dashoffset:0;stroke-opacity:1"
           id="path2063"
           inkscape:connector-curvature="0" /><path
           d="m 561.504,477.789 c 12.926,-9.674 22.179,-21.858 19.46,-31.682 -2.954,-10.571 -19.668,-18.017 -40.945,-20.485 -27.052,-3.123 -58.912,0.716 -92.389,7.946 -36.123,7.802 -74.63,11.481 -114.632,8.883"
           style="fill:none;stroke:#3e4fa2;stroke-width:0.44400001;stroke-linecap:butt;stroke-linejoin:miter;stroke-miterlimit:4;stroke-dasharray:2.516, 1.258, 2.516, 1.258, 2.516, 1.258;stroke-dashoffset:0;stroke-opacity:1"
           id="path2065"
           inkscape:connector-curvature="0" /><path
           d="m 303.169,347.575 c 27.199,8.62 54.249,12.324 80.03,11.814 25.174,-0.505 50.061,-7.107 76.946,-11.029 27.007,-3.93 53.095,-3.919 75.626,0.801 19.424,4.077 35.333,11.762 43.959,22.458 0.036,-2.594 0.06,-5.182 0.085,-7.765 -45.735,-56.91 -177.907,6.462 -276.619,-27.151 -0.015,3.628 -0.027,7.252 -0.027,10.872"
           style="fill:#d298ca;fill-opacity:1;fill-rule:nonzero;stroke:none"
           id="path2067"
           inkscape:connector-curvature="0" /><path
           d="m 146.28,249.931 c 27.605,31.457 55.89,55.057 83.201,72.327 24.659,15.586 49.355,26.556 73.164,33.719 43.699,13.124 87.3,13.757 127.445,5.608 -0.179,-0.987 -0.355,-1.975 -0.529,-2.962 -40.05,8.026 -83.486,7.3 -126.923,-6.072 -23.684,-7.299 -48.224,-18.455 -72.69,-34.236 -27.11,-17.504 -55.13,-41.386 -82.391,-73.138 -0.44,1.579 -0.869,3.163 -1.277,4.754"
           style="fill:#e74fa8;fill-opacity:1;fill-rule:nonzero;stroke:none"
           id="path2069"
           inkscape:connector-curvature="0" /><path
           d="m 154.672,219.142 c 21.182,27.829 43.143,50.067 64.846,67.51 19.741,15.848 39.738,28.123 59.332,37.275 0.317,-6.794 0.68,-13.596 1.058,-20.408 -18.916,-9.913 -38.098,-23.068 -56.828,-39.875 -20.667,-18.546 -41.317,-42.036 -60.889,-71.14 -2.552,8.851 -5.036,17.736 -7.519,26.638"
           style="fill:#e74fa8;fill-opacity:1;fill-rule:nonzero;stroke:none"
           id="path2071"
           inkscape:connector-curvature="0" /><path
           d="m 164.443,184.707 c 16.008,24.708 32.815,45.423 49.778,62.541 15.543,15.686 31.469,28.625 47.328,39.056 28.884,18.977 58.722,30.332 87.157,35.15 -0.098,-1.975 -0.197,-3.953 -0.286,-5.933 -28.206,-5.044 -57.754,-16.728 -86.217,-36.095 -15.654,-10.651 -31.332,-23.842 -46.582,-39.791 -16.655,-17.421 -33.089,-38.461 -48.676,-63.487 -0.836,2.85 -1.684,5.7 -2.502,8.559"
           style="fill:#6287c7;fill-opacity:1;fill-rule:nonzero;stroke:none"
           id="path2073"
           inkscape:connector-curvature="0" /><path
           d="m 240.27,342.295 c 28.709,15.304 57.262,25.007 84.488,30.244 25.729,4.939 51.081,6.057 75.332,3.82 48.444,-4.487 98.728,-19.547 140.809,-10.19 -0.132,-1.7 -0.27,-3.399 -0.412,-5.095 -42.413,-9.656 -93.003,5.449 -141.277,9.741 -24.064,2.128 -49.217,0.845 -74.7,-4.328 -26.985,-5.484 -55.251,-15.529 -83.574,-31.233 -0.226,2.347 -0.452,4.693 -0.666,7.041"
           style="fill:#ea73b9;fill-opacity:1;fill-rule:nonzero;stroke:none"
           id="path2075"
           inkscape:connector-curvature="0" /><path
           d="m 288.514,386.27 c 33.291,9.275 65.891,12.679 96.668,11.371 29.817,-1.278 58.417,-9.981 88.327,-13.877 28.619,-3.719 55.228,-3.084 76.631,2.791 17.298,4.758 30.401,13.843 33.677,24.698 0.215,-3.386 0.412,-6.762 0.602,-10.129 -3.635,-11.468 -17.143,-21.139 -34.991,-26.306 -21.906,-6.328 -49.125,-7.205 -78.28,-3.48 -30.229,3.872 -58.532,12.438 -87.788,13.348 -30.203,0.929 -62.203,-3.092 -94.684,-13.208 -0.072,4.935 -0.121,9.865 -0.162,14.792"
           style="fill:#6287c7;fill-opacity:1;fill-rule:nonzero;stroke:none"
           id="path2077"
           inkscape:connector-curvature="0" /><path
           d="m 422.232,310.148 c -38.793,5.746 -79.618,3.201 -118.626,-13.881 -21.51,-9.437 -43.408,-23.221 -64.523,-41.855 -23.645,-20.879 -47.159,-48.627 -68.741,-84.201"
           style="fill:none;stroke:#ea73b9;stroke-width:0.34400001;stroke-linecap:butt;stroke-linejoin:miter;stroke-miterlimit:4;stroke-dasharray:1.951, 0.976, 1.951, 0.976, 1.951, 0.976;stroke-dashoffset:0;stroke-opacity:1"
           id="path2079"
           inkscape:connector-curvature="0" /><path
           d="m 573.596,383.261 c -15.745,-12.525 -42.878,-18.057 -74.33,-17.565 -35.265,0.568 -70.013,12.144 -104.215,14.657 -35.135,2.57 -72.935,-1.726 -111.147,-14.712 -20.703,-7.04 -42.062,-16.813 -63.565,-29.848 -23.42,-14.207 -47.615,-32.663 -71.705,-56.307"
           style="fill:none;stroke:#656bb6;stroke-width:0.44400001;stroke-linecap:butt;stroke-linejoin:miter;stroke-miterlimit:4;stroke-dasharray:2.516, 1.258, 2.516, 1.258, 2.516, 1.258;stroke-dashoffset:0;stroke-opacity:1"
           id="path2081"
           inkscape:connector-curvature="0" /><path
           d="m 247.872,452.684 c 35.551,7.68 69.386,10.995 101.264,11.108 30.477,0.098 59.923,-2.826 87.967,-8.069 26.401,-4.94 50.784,-10.271 73.842,-11.562 20.638,-1.152 38.541,0.027 51.935,4.523 0.023,-2.93 0.032,-5.857 0.037,-8.781 -13.716,-4.849 -32.037,-6.274 -53.068,-5.233 -23.405,1.164 -47.963,6.657 -74.363,11.629 -27.839,5.236 -56.999,7.906 -87.1,7.427 -31.482,-0.504 -64.864,-4.398 -99.8,-12.856 -0.246,3.936 -0.474,7.874 -0.714,11.814"
           style="fill:#e0b8db;fill-opacity:1;fill-rule:nonzero;stroke:none"
           id="path2083"
           inkscape:connector-curvature="0" /><path
           d="m 7.2,356.436 c 26.547,18.248 51.633,33.315 75.226,45.856 21.752,11.562 42.556,21.149 62.379,29.131 36.219,14.577 70.207,24.226 101.782,30.462 56.851,11.2 109.79,12.169 158.136,6.445 -0.134,-1.006 -0.269,-2.014 -0.41,-3.019 -48.185,5.63 -100.946,4.427 -157.491,-7.168 C 215.413,451.688 181.631,441.756 145.705,426.82 126.04,418.641 105.418,408.841 83.893,397.028 60.544,384.216 35.761,368.835 9.561,350.277 8.76,352.322 7.963,354.371 7.2,356.436"
           style="fill:#ef88c5;fill-opacity:1;fill-rule:nonzero;stroke:none"
           id="path2085"
           inkscape:connector-curvature="0" /><path
           d="m 22.38,316.836 c 38.75,32.421 75.119,56.525 108.571,74.64 29.852,16.173 58.362,28.104 85.2,36.889 0.783,-7.502 1.579,-14.994 2.352,-22.482 -25.9,-9.997 -53.245,-23.4 -81.554,-41.277 -31.773,-20.051 -65.915,-46.487 -101.595,-81.512 -4.332,11.159 -8.622,22.418 -12.974,33.742"
           style="fill:#ef88c5;fill-opacity:1;fill-rule:nonzero;stroke:none"
           id="path2087"
           inkscape:connector-curvature="0" /><path
           d="m 39.135,273.297 c 29.247,30.06 57.518,53.916 84.235,72.938 24.114,17.143 47.528,30.785 69.933,41.582 40.332,19.448 79.138,30.621 115.127,36.11 -0.046,-2.053 -0.102,-4.107 -0.149,-6.161 -35.683,-5.845 -74.114,-17.521 -113.879,-37.608 -22.105,-11.17 -45.165,-25.222 -68.814,-42.845 C 99.373,317.748 71.72,293.298 43.28,262.587 c -1.393,3.558 -2.775,7.128 -4.145,10.71"
           style="fill:#91a7d8;fill-opacity:1;fill-rule:nonzero;stroke:none"
           id="path2089"
           inkscape:connector-curvature="0" /><path
           d="m 159.844,453.022 c 41.142,13.436 79.359,21.309 114.597,25.509 32.765,3.893 63.99,4.73 93.628,3.202 28.537,-1.478 55.951,-5.436 81.836,-10.472 23.915,-4.654 46.118,-8.667 66.733,-9.781 -0.164,-1.838 -0.332,-3.676 -0.498,-5.513 -20.792,1.033 -43.107,5.068 -67.039,9.777 -25.847,5.084 -53.159,8.956 -81.533,10.263 -29.449,1.351 -60.459,0.256 -92.943,-4.007 -34.937,-4.597 -72.776,-13.003 -113.367,-27.144 -0.471,2.72 -0.943,5.442 -1.414,8.166"
           style="fill:#f1a0d0;fill-opacity:1;fill-rule:nonzero;stroke:none"
           id="path2091"
           inkscape:connector-curvature="0" /><path
           d="m 224.997,496.748 c 44.024,6.502 84.832,8.299 122.68,6.905 35.797,-1.321 69.746,-5.84 101.377,-11.725 28.684,-5.336 54.5,-10.042 77.527,-10.942 19.24,-0.743 34.785,0.454 43.879,5.638 0.283,-3.813 0.546,-7.623 0.788,-11.427 -9.475,-5.753 -25.613,-7.425 -45.405,-6.918 -23.508,0.606 -49.633,5.367 -78.375,10.817 -31.522,5.971 -65.191,10.2 -100.514,10.944 -37.284,0.772 -77.414,-1.958 -120.446,-9.853 -0.492,5.511 -1.006,11.031 -1.511,16.561"
           style="fill:#91a7d8;fill-opacity:1;fill-rule:nonzero;stroke:none"
           id="path2093"
           inkscape:connector-curvature="0" /><path
           d="m 396.342,416.165 c -45.004,3.797 -94.417,-1.189 -145.472,-18.843 -28.509,-9.864 -58.674,-24.105 -89.641,-44.171 -17.002,-11.018 -34.5,-23.979 -52.342,-39.172 C 89.535,297.46 69.507,278.046 49.068,255.191"
           style="fill:none;stroke:#f1a0d0;stroke-width:0.34400001;stroke-linecap:butt;stroke-linejoin:miter;stroke-miterlimit:4;stroke-dasharray:1.951, 0.976, 1.951, 0.976, 1.951, 0.976;stroke-dashoffset:0;stroke-opacity:1"
           id="path2095"
           inkscape:connector-curvature="0" /><path
           d="m 554.427,466.35 c -21.157,-3.604 -48.56,-1.648 -79.342,3.747 -34.636,6.086 -72.724,13.861 -113.502,15.615 -43.194,1.847 -90.25,-1.107 -141.144,-11.546 C 192.313,468.388 162.197,460.15 130.087,448.472 94.323,435.475 54.824,417.757 11.434,393.152"
           style="fill:none;stroke:#9292cc;stroke-width:0.44400001;stroke-linecap:butt;stroke-linejoin:miter;stroke-miterlimit:4;stroke-dasharray:2.516, 1.258, 2.516, 1.258, 2.516, 1.258;stroke-dashoffset:0;stroke-opacity:1"
           id="path2097"
           inkscape:connector-curvature="0" /><path
           d="m 217.158,348.957 c 32.628,18.506 64.882,30.125 95.351,36.518 28.539,5.979 56.542,7.611 83.222,5.546 52.244,-4.062 105.131,-21.2 148.526,-11.299 -0.209,-2.95 -0.435,-5.893 -0.65,-8.832 -44.044,-10.476 -97.596,6.882 -149.379,10.541 -26.309,1.849 -53.929,-0.132 -81.987,-6.582 -29.998,-6.912 -61.683,-19.235 -93.499,-38.594 -0.537,4.233 -1.058,8.468 -1.584,12.702"
           style="fill:#efdaed;fill-opacity:1;fill-rule:nonzero;stroke:none"
           id="path2099"
           inkscape:connector-curvature="0" /><path
           d="m 3.503,135.038 c 21.216,36.432 42.39,67.259 62.987,93.441 18.578,23.571 37.01,43.752 55.036,60.984 31.97,30.59 63.702,52.992 93.738,69.166 27.138,14.613 53.835,24.675 79.347,31.16 24.03,6.101 47.6,9.187 70.285,9.725 -0.119,-1.038 -0.227,-2.078 -0.341,-3.117 -22.584,-0.619 -46.047,-3.813 -69.945,-10.058 -25.381,-6.633 -51.921,-16.891 -78.853,-31.729 -29.822,-16.436 -61.271,-39.158 -92.86,-70.095 -17.801,-17.448 -36.016,-37.82 -54.278,-61.631 -20.293,-26.413 -41.021,-57.534 -61.796,-94.2 -1.116,2.108 -2.249,4.214 -3.32,6.354"
           style="fill:#f7c3e1;fill-opacity:1;fill-rule:nonzero;stroke:none"
           id="path2101"
           inkscape:connector-curvature="0" /><path
           d="m 24.927,94.293 c 15.226,31.608 30.654,59.377 46.064,83.746 14.088,22.287 28.301,41.977 42.402,59.372 25.3,31.181 50.938,55.685 75.79,74.754 1.432,-8.09 2.904,-16.17 4.382,-24.245 -23.612,-20.423 -47.662,-46.469 -70.96,-79.245 -13.001,-18.3 -25.947,-38.93 -38.606,-62.149 C 70.162,121.142 56.515,92.387 43.35,59.84 37.23,71.216 31.098,82.705 24.927,94.293"
           style="fill:#f7c3e1;fill-opacity:1;fill-rule:nonzero;stroke:none"
           id="path2103"
           inkscape:connector-curvature="0" /><path
           d="m 48.734,49.891 c 10.519,27.434 21.428,52.204 32.526,74.569 10.301,20.722 20.816,39.532 31.48,56.548 19.305,30.9 39.314,56.481 59.226,77.481 34.461,36.365 70.424,60.777 104.453,75.954 0.093,-2.2 0.211,-4.4 0.309,-6.602 C 243.063,312.229 207.616,287.223 173.874,250.239 154.376,228.84 134.85,202.851 116.129,171.535 105.799,154.279 95.621,135.249 85.729,114.294 75.051,91.694 64.615,66.693 54.642,39.04 c -2.015,3.58 -3.944,7.219 -5.908,10.851"
           style="fill:#c6cfeb;fill-opacity:1;fill-rule:nonzero;stroke:none"
           id="path2105"
           inkscape:connector-curvature="0" /><path
           d="m 133.483,320.002 c 37.043,30.021 73.388,50.543 107.279,64.242 30.71,12.404 60.68,19.757 89.117,23.227 52.987,6.446 102.94,-7.621 152.152,-13.033 -0.327,-1.807 -0.653,-3.612 -0.982,-5.415 -49.43,5.369 -99.004,19.367 -151.502,12.474 -28.198,-3.716 -57.893,-11.408 -88.232,-24.226 -33.509,-14.182 -69.355,-35.315 -105.659,-66.053 -0.728,2.925 -1.435,5.857 -2.173,8.784"
           style="fill:#f8cfe7;fill-opacity:1;fill-rule:nonzero;stroke:none"
           id="path2107"
           inkscape:connector-curvature="0" /><path
           d="m 192.235,390.5 c 41.312,19.622 80.968,30.731 117.675,36.034 34.209,4.935 67.338,5.058 98.745,1.215 30.688,-3.764 59.299,-12.469 87.408,-14.66 25.763,-2.001 48.585,-0.449 65.518,5.811 -0.064,-3.888 -0.147,-7.769 -0.24,-11.643 -17.423,-6.781 -40.891,-8.673 -67.266,-6.762 -28.679,2.085 -57.433,11.092 -87.625,14.582 -30.848,3.557 -63.417,2.927 -96.91,-2.763 -35.994,-6.123 -74.774,-18.41 -114.741,-39.548 -0.869,5.905 -1.711,11.817 -2.564,17.734"
           style="fill:#c6cfeb;fill-opacity:1;fill-rule:nonzero;stroke:none"
           id="path2109"
           inkscape:connector-curvature="0" /><path
           d="M 359.041,345.025 C 338.165,343.052 316.584,338.06 294.99,329.639 271.877,320.622 248.08,307.395 224.685,289.229 198.524,268.915 171.887,241.604 146.597,205.925 132.285,185.729 118.156,162.513 104.586,135.928 89.532,106.466 74.937,72.44 61.362,33.22"
           style="fill:none;stroke:#f8cfe7;stroke-width:0.34400001;stroke-linecap:butt;stroke-linejoin:miter;stroke-miterlimit:4;stroke-dasharray:1.951, 0.976, 1.951, 0.976, 1.951, 0.976;stroke-dashoffset:0;stroke-opacity:1"
           id="path2111"
           inkscape:connector-curvature="0" /><path
           d="M 532.941,397.418 C 469.884,390.333 398.759,420.582 323.61,410.457 281.942,404.82 236.3,390.872 189.427,364.301 162.641,349.111 134.462,329.211 105.668,303.293 89.734,288.918 73.366,272.514 56.77,253.728 38.659,233.274 20.049,209.725 1.095,182.622"
           style="fill:none;stroke:#c6c3e5;stroke-width:0.44400001;stroke-linecap:butt;stroke-linejoin:miter;stroke-miterlimit:4;stroke-dasharray:2.516, 1.258, 2.516, 1.258, 2.516, 1.258;stroke-dashoffset:0;stroke-opacity:1"
           id="path2113"
           inkscape:connector-curvature="0" /><path
           d="m 37.768,314.997 c 28.139,23.906 55.023,43.133 80.377,58.676 23.139,14.167 45.457,25.562 66.772,34.725 38.721,16.627 75.573,26.549 109.838,31.839 62.223,9.588 120.501,0.548 173.722,-9.073 -0.583,-3.168 -1.187,-6.33 -1.804,-9.488 -53.064,9.616 -110.727,18.379 -171.963,7.685 -33.756,-5.906 -69.988,-16.668 -107.788,-34.38 -20.832,-9.766 -42.567,-21.855 -64.984,-36.799 -24.584,-16.396 -50.506,-36.598 -77.421,-61.577 -2.251,6.107 -4.502,12.236 -6.749,18.392"
           style="fill:#ffffff;fill-opacity:1;fill-rule:nonzero;stroke:none"
           id="path2115"
           inkscape:connector-curvature="0" /></g></g></g></svg>